<svg width="46" height="46" viewBox="0 0 46 46" fill="none" xmlns="http://www.w3.org/2000/svg">
<path d="M20.7 14.9502C20.6996 13.6758 20.2759 12.4375 19.4954 11.4301C18.7149 10.4226 17.6218 9.70302 16.3878 9.38434C15.1538 9.06565 13.849 9.16594 12.6782 9.66946C11.5075 10.173 10.5372 11.0512 9.91975 12.1661C9.30235 13.281 9.07284 14.5694 9.26727 15.8289C9.46171 17.0884 10.0691 18.2477 10.994 19.1245C11.9188 20.0013 13.1088 20.546 14.3769 20.673C15.645 20.8 16.9194 20.5022 17.9998 19.8262C17.6294 22.0525 16.8893 24.2012 15.8102 26.1834C14.3175 28.8974 12.4154 30.8087 10.6858 32.536C10.4698 32.7519 10.3485 33.0448 10.3485 33.3502C10.3485 33.6556 10.4698 33.9485 10.6858 34.1644C10.9017 34.3803 11.1946 34.5017 11.5 34.5017C11.8053 34.5017 12.0982 34.3803 12.3142 34.1644L12.3395 34.1368C14.0576 32.4187 16.1667 30.3096 17.8273 27.292C19.504 24.2376 20.7 20.3092 20.7 14.9502Z" fill="#292929"/>
<path d="M34.0997 19.8262C33.0193 20.5022 31.745 20.8 30.4769 20.673C29.2088 20.546 28.0188 20.0013 27.0939 19.1245C26.1691 18.2477 25.5617 17.0884 25.3672 15.8289C25.1728 14.5694 25.4023 13.281 26.0197 12.1661C26.6371 11.0512 27.6074 10.173 28.7782 9.66946C29.949 9.16594 31.2538 9.06565 32.4878 9.38434C33.7217 9.70302 34.8148 10.4226 35.5954 11.4301C36.3759 12.4375 36.7996 13.6758 36.7999 14.9502C36.7999 20.3092 35.6039 24.2376 33.9249 27.292C32.2666 30.3096 30.1575 32.421 28.4417 34.1368L28.4141 34.1644C28.1982 34.3803 27.9053 34.5017 27.5999 34.5017C27.2946 34.5017 27.0017 34.3803 26.7857 34.1644C26.5698 33.9485 26.4485 33.6556 26.4485 33.3502C26.4485 33.0448 26.5698 32.7519 26.7857 32.536C28.5153 30.8087 30.4174 28.8997 31.9101 26.1834C32.9896 24.2005 33.7297 22.051 34.0997 19.8239V19.8262Z" fill="#292929"/>
</svg>
