<svg width="46" height="46" viewBox="0 0 46 46" fill="none" xmlns="http://www.w3.org/2000/svg">
<path d="M25.3 31.0498C25.3004 32.3242 25.7241 33.5625 26.5046 34.5699C27.2851 35.5774 28.3782 36.297 29.6122 36.6157C30.8462 36.9343 32.151 36.8341 33.3218 36.3305C34.4925 35.827 35.4628 34.9488 36.0802 33.8339C36.6977 32.719 36.9272 31.4306 36.7327 30.1711C36.5383 28.9116 35.9309 27.7523 35.006 26.8755C34.0812 25.9987 32.8912 25.454 31.6231 25.327C30.355 25.2 29.0806 25.4978 28.0002 26.1738C28.3706 23.9475 29.1107 21.7988 30.1898 19.8166C31.6825 17.1026 33.5846 15.1913 35.3142 13.464C35.5302 13.2481 35.6515 12.9552 35.6515 12.6498C35.6515 12.3444 35.5302 12.0515 35.3142 11.8356C35.0983 11.6197 34.8054 11.4983 34.5 11.4983C34.1947 11.4983 33.9018 11.6197 33.6858 11.8356L33.6605 11.8632C31.9424 13.5813 29.8333 15.6904 28.1727 18.708C26.496 21.7624 25.3 25.6908 25.3 31.0498Z" fill="#292929"/>
<path d="M11.9003 26.1738C12.9807 25.4978 14.255 25.2 15.5231 25.327C16.7912 25.454 17.9812 25.9987 18.9061 26.8755C19.8309 27.7523 20.4383 28.9116 20.6328 30.1711C20.8272 31.4306 20.5977 32.719 19.9803 33.8339C19.3629 34.9488 18.3926 35.827 17.2218 36.3305C16.051 36.8341 14.7462 36.9343 13.5122 36.6157C12.2783 36.297 11.1852 35.5774 10.4046 34.5699C9.6241 33.5625 9.20039 32.3242 9.20007 31.0498C9.20007 25.6908 10.3961 21.7624 12.0751 18.708C13.7334 15.6904 15.8425 13.579 17.5583 11.8632L17.5859 11.8356C17.8018 11.6197 18.0947 11.4983 18.4001 11.4983C18.7054 11.4983 18.9983 11.6197 19.2143 11.8356C19.4302 12.0515 19.5515 12.3444 19.5515 12.6498C19.5515 12.9552 19.4302 13.2481 19.2143 13.464C17.4847 15.1913 15.5826 17.1003 14.0899 19.8166C13.0104 21.7995 12.2703 23.949 11.9003 26.1761V26.1738Z" fill="#292929"/>
</svg>
