<svg width="133" height="194" viewBox="0 0 133 194" fill="none" xmlns="http://www.w3.org/2000/svg">
<g clip-path="url(#clip0_2_124)">
<path d="M66.5303 117.029C99.1577 117.029 125.607 90.8314 125.607 58.5147C125.607 26.1979 99.1577 0 66.5303 0C33.9029 0 7.45312 26.1979 7.45312 58.5147C7.45312 90.8314 33.9029 117.029 66.5303 117.029Z" fill="#F39313"/>
<path fill-rule="evenodd" clip-rule="evenodd" d="M69.5851 79.3308C71.5401 86.5921 68.4854 91.1305 62.315 94.6402C59.5047 92.6433 57.5497 90.7674 55.9613 87.6208C54.6783 85.1399 54.0674 82.2958 54.0674 79.3913C54.1285 76.4867 54.8616 73.7032 56.2667 71.2827C57.6108 68.8018 59.5658 66.6839 62.0095 65.05C58.0384 71.8273 54.8616 78.2416 58.8938 86.1686C59.7491 87.9234 61.032 89.4967 62.5593 90.7674C68.3632 86.9552 68.6687 82.7194 69.5851 79.3308Z" fill="white"/>
<path fill-rule="evenodd" clip-rule="evenodd" d="M66.5308 41.39C59.3829 50.7088 64.9423 59.0594 71.6626 65.9577L72.3346 66.6838C80.5211 74.9739 81.6208 83.8086 78.5661 91.07C76.9166 95.0032 73.9841 98.5129 70.3186 101.115C70.1964 101.236 70.0131 101.296 69.8909 101.417C71.8459 102.204 73.862 102.749 76.0002 102.991C84.6755 104.201 94.5726 101.054 102.148 91.1305C96.9552 89.7387 89.6851 89.7992 82.2928 94.2771C89.7462 85.1398 101.72 86.7736 106.975 89.7992C98.3604 103.414 86.1417 107.65 75.5115 106.198C72.3346 105.774 69.2189 104.806 66.4697 103.414C63.6594 104.806 60.6047 105.774 57.4279 106.198C46.7976 107.65 34.579 103.414 25.9648 89.7992C31.2189 86.7736 43.1931 85.1398 50.6465 94.2771C43.2542 89.7992 35.9841 89.7387 30.7912 91.1305C38.489 101.054 48.325 104.201 57.0002 102.991C61.2157 102.386 65.1867 100.812 68.4247 98.5129C71.6626 96.2134 74.1674 93.2484 75.5726 89.7992C78.1385 83.627 77.0999 76.0631 70.0131 68.8622L69.3411 68.1361C63.9038 62.6295 59.6272 57.5466 59.3829 51.3139C59.0774 43.4474 66.4086 31.103 66.4086 31.103C66.4086 31.103 74.2285 42.2977 73.7398 51.3139C73.5565 55.0051 72.6401 57.9096 70.0742 60.9352C71.7237 55.1261 71.8459 47.2596 66.5308 41.39Z" fill="white"/>
<path fill-rule="evenodd" clip-rule="evenodd" d="M43.3152 84.4743C40.9936 83.4456 38.611 82.5379 37.6946 82.1144C34.8843 80.9041 32.074 79.3308 29.7525 77.5155C37.8168 74.3084 44.7203 74.6109 50.402 78.5442C49.6078 76.8499 47.4695 74.6109 46.7364 73.7638C46.0644 73.1587 45.2701 71.5854 45.2701 71.5854C41.91 65.4132 41.6045 54.7026 41.5435 52.4032C41.5435 52.1611 41.5435 51.9796 41.5435 51.9796C48.447 55.2472 52.9679 58.5754 55.2894 66.4419C55.1673 52.6452 36.8393 44.6577 36.8393 44.6577C37.0226 49.9827 37.6335 55.1262 38.0611 58.5149C38.2444 59.9066 38.4277 61.2984 38.6721 62.5691C38.6721 62.6296 38.6721 62.6296 38.6721 62.6296C39.5274 67.3495 41.0547 71.0407 44.2927 73.5822C37.2669 71.5854 26.5756 74.6109 17.4116 73.5822C23.2766 77.3945 27.9197 81.5698 32.6238 83.3246C37.8168 85.261 42.1544 85.9266 46.492 88.4681C49.4856 90.2229 52.2959 93.7326 52.2959 93.7326C52.2959 93.551 52.2348 93.309 52.2348 93.1275C51.3184 88.347 44.6592 85.0794 43.3152 84.4743Z" fill="white"/>
<path fill-rule="evenodd" clip-rule="evenodd" d="M89.6847 84.4743C92.0063 83.4456 94.3889 82.5379 95.3053 82.1144C98.1156 80.9041 100.926 79.3308 103.247 77.5155C95.1831 74.3084 88.2796 74.6109 82.5979 78.5442C83.3921 76.8499 85.5304 74.6109 86.2635 73.7638C86.9355 73.1587 87.7297 71.5854 87.7297 71.5854C91.0899 65.4132 91.3953 54.7026 91.4564 52.4032C91.4564 52.1611 91.4564 51.9796 91.4564 51.9796C84.5529 55.2472 80.032 58.5754 77.7104 66.4419C77.8326 52.6452 96.1606 44.6577 96.1606 44.6577C95.9773 49.9827 95.3664 55.1262 94.9387 58.5149C94.7555 59.9066 94.5722 61.2984 94.3278 62.5691C94.3278 62.6296 94.3278 62.6296 94.3278 62.6296C93.4725 67.3495 91.9452 71.0407 88.7072 73.5822C95.733 71.5854 106.424 74.6109 115.588 73.5822C109.723 77.3945 105.08 81.5698 100.376 83.3246C95.1831 85.261 90.8455 85.9266 86.5079 88.4681C83.5143 90.2229 80.704 93.7326 80.704 93.7326C80.704 93.551 80.7651 93.309 80.7651 93.1275C81.6815 88.347 88.3407 85.0794 89.6847 84.4743Z" fill="white"/>
<path d="M2.13821 187.707C3.48226 189.038 6.10927 190.793 10.0803 190.793C13.5016 190.793 15.8842 189.038 15.8842 186.315C15.8842 179.054 1.89383 180.808 1.89383 172.397C1.89383 167.678 6.23145 165.197 10.9967 165.197C15.1511 165.197 18.2057 167.254 19.061 168.101L17.045 170.643C15.6398 169.372 13.5016 168.343 11.0578 168.343C8.43081 168.343 5.98708 169.553 5.98708 172.155C5.98708 178.085 20.0996 176.512 20.0996 186.315C20.0996 190.248 16.3118 194.061 9.77486 194.061C5.49833 194.061 1.46618 191.882 0.0610352 190.309L2.13821 187.707Z" fill="white"/>
<path d="M44.5368 193.456V180.93H28.7137V193.456H24.8037V165.802H28.7137V177.783H44.5979V165.802H48.5079V193.456H44.5368Z" fill="white"/>
<path d="M55.4116 193.456V165.802H59.3216V193.456H55.4116Z" fill="white"/>
<path d="M66.225 193.395V165.741H70.1349V190.248H83.1478V193.335H66.225V193.395Z" fill="white"/>
<path d="M86.8745 193.456V165.802H93.2282C99.4597 165.802 105.08 167.738 105.08 173.971C105.08 179.296 101.354 182.987 93.2893 182.987H90.7845V193.456H86.8745ZM93.2282 179.84C98.1768 179.84 101.048 177.602 101.048 173.971C101.048 170.582 98.1768 168.888 94.2668 168.888H90.7845V179.84H93.2282Z" fill="white"/>
<path d="M128.723 193.455L125.424 186.92H110.823L107.463 193.455H103.186L118.093 164.773L133.061 193.455H128.723ZM118.765 173.789C118.46 173.245 118.154 172.458 118.093 172.216C118.032 172.458 117.727 173.245 117.421 173.789L112.35 183.713H123.775L118.765 173.789Z" fill="white"/>
<path d="M31.2796 158.238V146.377L20.6494 130.584H25.0481L33.1124 142.989C33.2346 143.231 33.2957 143.412 33.3568 143.897C33.4179 143.412 33.5401 143.231 33.6623 142.989L41.7877 130.584H46.0642L35.2507 146.377V158.238H31.2796Z" fill="white"/>
<path d="M61.5821 158.782C52.2959 158.782 45.0869 152.368 45.0869 144.441C45.0869 136.454 52.357 130.039 61.5821 130.039C70.685 130.039 78.0162 136.211 78.0162 144.562C77.9551 152.429 70.4406 158.782 61.5821 158.782ZM61.5821 133.186C54.6786 133.186 49.1802 137.966 49.1802 144.26C49.1802 150.25 54.5564 155.636 61.3377 155.636C68.4245 155.636 73.8618 150.795 73.8618 144.502C73.8618 137.966 68.2413 133.186 61.5821 133.186Z" fill="white"/>
<path d="M100.071 147.648V144.441H112.411C112.35 154.486 105.202 158.782 97.749 158.782C88.7072 158.782 81.376 152.368 81.376 144.502C81.376 136.393 88.3406 130.039 97.8101 130.039C105.08 130.039 109.173 133.609 109.357 133.852L107.341 136.454C107.157 136.211 103.431 133.246 97.6879 133.246C90.1123 133.246 85.5303 138.208 85.5303 144.623C85.5303 150.311 90.6621 155.696 98.0544 155.696C103.308 155.696 107.829 152.671 108.318 147.709H100.071V147.648Z" fill="white"/>
<path d="M56.0228 143.654L54.4344 147.043L52.6016 142.323H53.2736L54.4955 145.409C54.4955 145.47 54.5565 145.53 54.5565 145.651C54.5565 145.591 54.5565 145.47 54.6176 145.409L56.0839 142.202L57.6112 145.409C57.6112 145.47 57.6723 145.53 57.6723 145.651C57.6723 145.591 57.6723 145.47 57.7334 145.409L58.8942 142.323H59.5662L57.7334 147.043L56.0228 143.654Z" fill="#F5F5F5"/>
<path d="M60.0552 146.862V142.323H60.6661V146.862H60.0552Z" fill="#F5F5F5"/>
<path d="M62.8041 146.862V142.868H61.3379V142.384H64.8813V142.868H63.4151V146.862H62.8041Z" fill="#F5F5F5"/>
<path d="M68.7911 146.862V144.804H66.2252V146.862H65.6143V142.323H66.2252V144.26H68.7911V142.323H69.402V146.862H68.7911Z" fill="#F5F5F5"/>
<path d="M52.5845 140.022V140.627H69.4462V140.022H52.5845Z" fill="#F5F5F5"/>
<path d="M52.5996 148.66V149.265H69.4613V148.66H52.5996Z" fill="#F5F5F5"/>
</g>
<defs>
<clipPath id="clip0_2_124">
<rect width="133" height="194" fill="white"/>
</clipPath>
</defs>
</svg>
