<svg width="493" height="756" viewBox="0 0 493 756" fill="none" xmlns="http://www.w3.org/2000/svg">
<path fill-rule="evenodd" clip-rule="evenodd" d="M31.3566 483.777C50.9673 556.616 20.3257 602.141 -41.5704 637.347C-69.7607 617.316 -89.3713 598.499 -105.305 566.935C-118.174 542.049 -124.303 513.52 -124.303 484.384C-123.69 455.248 -116.336 427.326 -102.241 403.046C-88.7585 378.159 -69.1478 356.915 -44.6346 340.526C-84.4686 408.509 -116.336 472.851 -75.889 552.367C-67.3093 569.97 -54.4399 585.752 -39.1191 598.499C19.1 560.258 22.1642 517.769 31.3566 483.777Z" fill="#F3F3F3"/>
<path fill-rule="evenodd" clip-rule="evenodd" d="M0.718597 103.189C-70.9828 196.667 -15.215 280.433 52.1965 349.63L58.9377 356.914C141.057 440.073 152.088 528.694 121.447 601.534C104.9 640.989 75.4841 676.194 38.7142 702.295C37.4885 703.509 35.65 704.116 34.4244 705.33C54.035 713.221 74.2585 718.684 95.7076 721.112C182.73 733.252 282.008 701.688 358 602.141C305.909 588.18 232.982 588.787 158.829 633.705C233.595 542.048 353.71 558.437 406.413 588.787C320.004 725.361 197.438 767.851 90.8049 753.283C58.9376 749.034 27.6832 739.322 0.105774 725.361C-28.0845 739.322 -58.7261 749.034 -90.5934 753.283C-197.226 767.851 -319.793 725.361 -406.202 588.787C-353.498 558.437 -233.383 542.048 -158.618 633.705C-232.77 588.787 -305.697 588.18 -357.788 602.141C-280.571 701.688 -181.905 733.252 -94.8832 721.112C-52.5978 715.042 -12.7637 699.26 19.7164 676.194C52.1965 653.129 77.3226 623.386 91.4177 588.787C117.157 526.873 106.739 450.999 35.65 378.766L28.9089 371.482C-25.6332 316.245 -68.5315 265.258 -70.9828 202.737C-74.0469 123.827 -0.50708 0 -0.50708 0C-0.50708 0 77.9354 112.294 73.0327 202.737C71.1942 239.764 62.0018 268.9 36.2628 299.249C52.8093 240.978 54.035 162.068 0.718597 103.189Z" fill="#F3F3F3"/>
<path fill-rule="evenodd" clip-rule="evenodd" d="M232.978 535.372C256.266 525.053 280.166 515.948 289.359 511.699C317.549 499.559 345.739 483.777 369.027 465.568C288.133 433.397 218.883 436.432 161.89 475.887C169.856 458.891 191.306 436.432 198.659 427.934C205.401 421.864 213.368 406.082 213.368 406.082C247.073 344.168 250.137 236.73 250.75 213.664C250.75 211.236 250.75 209.415 250.75 209.415C181.5 242.193 136.151 275.578 112.863 354.487C114.089 216.092 297.938 135.968 297.938 135.968C296.1 189.384 289.971 240.979 285.682 274.971C283.843 288.931 282.005 302.892 279.553 315.639C279.553 316.246 279.553 316.246 279.553 316.246C270.974 363.592 255.653 400.619 223.173 426.113C293.648 406.082 400.894 436.432 492.819 426.113C433.987 464.354 387.412 506.236 340.224 523.839C288.133 543.263 244.622 549.94 201.111 575.434C171.082 593.037 142.892 628.243 142.892 628.243C142.892 626.422 143.505 623.994 143.505 622.173C152.697 574.22 219.496 541.442 232.978 535.372Z" fill="#F3F3F3"/>
</svg>
