<svg width="492" height="746" viewBox="0 0 492 746" fill="none" xmlns="http://www.w3.org/2000/svg">
<path fill-rule="evenodd" clip-rule="evenodd" d="M523.357 477.161C542.967 548.971 512.326 593.851 450.43 628.559C422.239 608.812 402.629 590.261 386.695 559.144C373.826 534.609 367.697 506.484 367.697 477.76C368.31 449.036 375.664 421.509 389.759 397.573C403.242 373.038 422.852 352.094 447.365 335.937C407.531 402.959 375.664 466.39 416.111 544.782C424.691 562.136 437.56 577.694 452.881 590.261C511.1 552.561 514.164 510.672 523.357 477.161Z" fill="#FAFAFA"/>
<path fill-rule="evenodd" clip-rule="evenodd" d="M492.719 101.958C421.017 194.113 476.785 276.694 544.197 344.912L550.938 352.093C633.057 434.076 644.088 521.443 613.447 593.253C596.9 632.149 567.484 666.857 530.714 692.589C529.489 693.785 527.65 694.384 526.424 695.581C546.035 703.36 566.259 708.746 587.708 711.139C674.73 723.107 774.009 691.99 850 593.851C797.909 580.088 724.982 580.686 650.829 624.968C725.595 534.608 845.71 550.765 898.414 580.686C812.004 715.328 689.438 757.217 582.805 742.855C550.938 738.666 519.683 729.091 492.106 715.328C463.916 729.091 433.274 738.666 401.407 742.855C294.774 757.217 172.208 715.328 85.7982 580.686C138.502 550.765 258.617 534.608 333.382 624.968C259.23 580.686 186.303 580.088 134.212 593.851C211.429 691.99 310.095 723.107 397.117 711.139C439.402 705.155 479.236 689.596 511.716 666.857C544.197 644.117 569.323 614.795 583.418 580.686C609.157 519.648 598.739 444.847 527.65 373.636L520.909 366.455C466.367 312 423.469 261.734 421.017 200.097C417.953 122.304 491.493 0.228516 491.493 0.228516C491.493 0.228516 569.936 110.934 565.033 200.097C563.194 236.6 554.002 265.324 528.263 295.244C544.809 237.797 546.035 160.004 492.719 101.958Z" fill="#FAFAFA"/>
<path fill-rule="evenodd" clip-rule="evenodd" d="M259.841 528.027C236.553 517.854 212.653 508.878 203.46 504.689C175.27 492.721 147.08 477.162 123.792 459.21C204.686 427.494 273.936 430.486 330.929 469.383C322.962 452.627 301.513 430.486 294.159 422.108C287.418 416.124 279.451 400.566 279.451 400.566C245.746 339.528 242.681 233.609 242.069 210.87C242.069 208.476 242.069 206.681 242.069 206.681C311.319 238.995 356.668 271.907 379.956 349.701C378.73 213.263 194.881 134.273 194.881 134.273C196.719 186.933 202.847 237.798 207.137 271.309C208.976 285.072 210.814 298.836 213.266 311.402C213.266 312.001 213.266 312.001 213.266 312.001C221.845 358.677 237.166 395.18 269.646 420.313C199.17 400.566 91.9248 430.486 0 420.313C58.8319 458.013 105.407 499.303 152.595 516.657C204.686 535.806 248.197 542.389 291.708 567.522C321.737 584.876 349.927 619.583 349.927 619.583C349.927 617.788 349.314 615.395 349.314 613.599C340.122 566.325 273.323 534.011 259.841 528.027Z" fill="#FAFAFA"/>
</svg>
